<?xml version="1.0" encoding="UTF-8"?>
<svg
   xmlns="http://www.w3.org/2000/svg"
   xmlns:xlink="http://www.w3.org/1999/xlink"
   xmlns:sb="http://simplector.lyoshka.net/base/2.0"
   xmlns:sp="http://simplector.lyoshka.net/pro/2.0"
   width="500.0px"
   height="500.0px"
   viewBox="0 0 500.0 500.0"
   sb:fontSize="Custom"
   sb:pageOrientation="Portrait"
   version="1.1"
   sb:version="2.0.27"
   >
   <desc>Created in Simplector Pro</desc>
   <path
      id="135"
      transform="matrix(1.0,0.0,0.0,1.0,43.034424,-355.30652)"
      fill="rgb(146,146,146)"
      fill-opacity="1.0"
      stroke-width="10.0px"
      stroke-linecap="butt"
      stroke-linejoin="miter"
      stroke-miterlimit="2.0"
      stroke="rgb(109,109,109)"
      stroke-opacity="1.0"
      d="
      M 269.34903 643.9978 C 269.34903 643.9978 229.80014 676.7291 200.7222 689.0314 C 171.64426 701.3336 175.69495 703.04846 153.03723 693.20667 
      C 130.37952 683.36487 124.779434 676.8037 110.09135 649.6643 C 95.40326 622.5249 89.35752 613.13696 94.284874 584.649 
      C 99.21223 556.161 129.80075 535.7125 129.80075 535.7125 C 129.80075 535.7125 146.24388 520.4308 173.31723 520.82666 
      C 200.39058 521.22253 212.41245 525.11816 226.57863 542.41583 C 240.74481 559.7135 232.88976 572.71954 229.98196 590.0172 
      C 227.07417 607.3149 201.94785 618.6478 201.94785 618.6478 C 201.94785 618.6478 244.7446 617.4549 260.40195 603.1396 
      C 276.0593 588.8243 283.59592 565.6071 275.976 539.82465 C 268.3561 514.0422 250.39621 502.81287 217.78831 492.2367 
      C 185.18042 481.66052 164.12949 486.06314 145.29279 489.87326 C 126.456085 493.68338 91.153404 504.57278 71.91723 535.1419 
      C 52.681053 565.711 53.00221 576.4196 59.265152 619.06726 C 65.52809 661.7149 72.51371 675.5362 96.969 705.73254 
      C 121.42429 735.9289 123.11966 740.2074 160.10085 745.8739 C 197.08203 751.5404 210.29843 746.06885 244.89374 728.39844 
      C 279.48904 710.728 303.9443 672.3302 303.9443 672.3302 C 303.9443 672.3302 269.34903 643.9978 269.34903 643.9978 
      M 269.34903 643.9978 
      "

      sb:layerName="copy of [BLine] PathFigure-131"
      sb:layerVisible="true"
      sb:layerLocked="false"
      sb:pathType="bline"
      >
   </path>
</svg>
